<?xml version="1.0" encoding="UTF-8"?>
<svg width="16px" height="16px" version="1.1" viewBox="0 0 16 16" xml:space="preserve" xmlns="http://www.w3.org/2000/svg"><path d="m3.043 1.0391c-1.1289 0-2.043 0.91407-2.043 2.043v9.875c0 1.1328 0.91407 2.043 2.043 2.043h2.957v-2h-3v-7h12v-2.918c0-1.1289-0.91406-2.043-2.043-2.043h-9.9141zm0.95703 6v2h2v-2h-2zm3 0v2h2v-2h-2zm4 0.96094v3h-3v2h3v3h2v-3h3v-2h-3v-1.5-1.5h-2zm-7 2.0391v2h2v-2h-2z" fill="context-fill" stroke="context-stroke" fill-opacity="context-fill-opacity" stroke-opacity="context-stroke-opacity"/></svg>
