<?xml version="1.0" encoding="UTF-8"?>
<svg xmlns="http://www.w3.org/2000/svg" style="fill-rule:evenodd" viewBox="0 0 16 16" width="16px" height="16px">
<g fill="context-fill" stroke="context-stroke" fill-opacity="context-fill-opacity" stroke-opacity="context-stroke-opacity">
<path d="M1.5 6.187c.16.041.327.063.5.063h1.667v5.976c0 .271.117.532.325.724.208.192.49.3.784.3h6.448c.294 0 .576-.108.784-.3.208-.192.325-.453.325-.724V6.25H14c.173 0 .34-.022.5-.063v6.039c0 .802-.345 1.571-.96 2.138-.614.567-1.447.886-2.316.886H4.776c-.869 0-1.702-.319-2.316-.886-.615-.567-.96-1.336-.96-2.138V6.187Z"/>
<path d="M16 2.7502C16 1.6456 15.105.75 14 .75H2c-1.105 0-2 .8956-2 2.0002v1.4996C0 5.3544.895 6.25 2 6.25h12c1.105 0 2-.8956 2-2.0002V2.7502Zm-14 0v1.4996h12V2.7502H2ZM6.5 10.2498h3.0003c.5515 0 .9993-.448.9993-1s-.4478-1-.9993-1H6.5001c-.5523 0-1.0001.448-1.0001 1s.4478 1 1 1Z"/>
</g></svg>
