<?xml version="1.0" encoding="UTF-8"?>
<svg width="16px" height="16px" version="1.1" viewBox="0 0 16 16" xml:space="preserve" xmlns="http://www.w3.org/2000/svg"><path d="m14.543-19.414c-0.13892-7.2-0.039042-1.9315 0.43555 23.203 0.005205 0.068929 0.021044 0.13502 0.021484 0.20508 0.003148 0.50106-0.30487-15.522-0.45703-23.408zm0.43555 23.203c-0.11698-1.549-1.404-2.7949-2.9785-2.7949h-2c0-0.55469-0.44531-1-1-1h-2c-0.55469 0-1 0.44531-1 1h-2c-1.6445 0-3 1.3555-3 3v9c0 1.6445 1.3555 2.9895 3 3l2 0.011718c0.55077 0.0035 1-0.44922 1-1 0-0.55078-0.44923-0.99649-1-1l-2-0.011718c-0.5703-0.0036-1-0.42969-1-1v-9c0-0.57031 0.42969-1 1-1h1v1c0 0.55469 0.44531 1 1 1h4c0.55469 0 1-0.44531 1-1v-1h1c0.57031 0 0.99463 0.42971 1 1l0.019531 2.0059c0.0052 0.55076 0.44922 1 1 1 0.55078 0 1.0104-0.44932 1-1-0.054318-2.8752 0.004206 0.18403-0.041015-2.2109zm-3.9785 4.2168v3h-3v2h3v3h2v-3h3v-2h-3v-3h-2z" fill="context-fill" stroke="context-stroke" fill-opacity="context-fill-opacity" stroke-opacity="context-stroke-opacity"/></svg>
