<?xml version="1.0" encoding="UTF-8" standalone="no"?>
<svg
   height="16px"
   viewBox="0 0 16 16"
   width="16px"
   version="1.1"
   id="svg6"
   sodipodi:docname="hicolor_apps_scalable_evolution-tasks.svg"
   inkscape:version="1.2 (dc2aedaf03, 2022-05-15)"
   xmlns:inkscape="http://www.inkscape.org/namespaces/inkscape"
   xmlns:sodipodi="http://sodipodi.sourceforge.net/DTD/sodipodi-0.dtd"
   xmlns="http://www.w3.org/2000/svg"
   xmlns:svg="http://www.w3.org/2000/svg">
  <defs
     id="defs10" />
  <sodipodi:namedview
     id="namedview8"
     pagecolor="#505050"
     bordercolor="#eeeeee"
     borderopacity="1"
     inkscape:showpageshadow="0"
     inkscape:pageopacity="0"
     inkscape:pagecheckerboard="0"
     inkscape:deskcolor="#505050"
     showgrid="false"
     inkscape:zoom="33.631766"
     inkscape:cx="2.6463076"
     inkscape:cy="11.016371"
     inkscape:window-width="1920"
     inkscape:window-height="1043"
     inkscape:window-x="0"
     inkscape:window-y="0"
     inkscape:window-maximized="1"
     inkscape:current-layer="svg6" />
  <path
     d="M 7,0 C 6.445312,0 6,0.445312 6,1 H 4 C 2.355469,1 1,2.355469 1,4 v 9 c 0,1.644531 1.3554712,2.99733 3,3 l 7.839849,0.01273 c 0.55078,8.94e-4 1,-0.449219 1,-1 0,-0.550781 -0.44922,-0.999106 -1,-1 L 4,14 C 3.4296888,13.999074 3,13.570312 3,13 V 4 C 3,3.429688 3.429688,3 4,3 h 1 v 1 c 0,0.554688 0.445312,1 1,1 h 4 c 0.554688,0 1,-0.445312 1,-1 V 3 h 1 c 0.570312,0 0.998866,0.4296891 1,1 l 0.01889,9.497865 c 0.0011,0.55078 0.449219,1 1,1 0.550781,0 1.001095,-0.44922 1,-1 L 15,4 C 14.996729,2.3554723 13.644531,1 12,1 H 10 C 10,0.445312 9.554688,0 9,0 Z"
     fill="context-fill" stroke="context-stroke" fill-opacity="context-fill-opacity" stroke-opacity="context-stroke-opacity"
     id="path2"
     sodipodi:nodetypes="scssssssssssscsssscssssssscss" />
</svg>
