<?xml version="1.0" encoding="UTF-8"?>
<svg width="16px" height="16px" version="1.1" viewBox="0 0 16 16" xmlns="http://www.w3.org/2000/svg">
 <path d="m7 0c-0.55469 0-1 0.44531-1 1h-2c-1.6445 0-3 1.3555-3 3v9c0 1.6445 1.3555 2.9973 3 3l7.8398 0.01273c0.55078 8.94e-4 1-0.44922 1-1s-0.44922-0.99911-1-1l-7.8398-0.01273c-0.57031-9.26e-4 -1-0.42969-1-1v-9c0-0.57031 0.42969-1 1-1h1v1c0 0.55469 0.44531 1 1 1h4c0.55469 0 1-0.44531 1-1v-1h1c0.57031 0 0.99887 0.42969 1 1l0.01889 9.4979c0.0011 0.55078 0.44922 1 1 1s1.0011-0.44922 1-1l-0.01889-9.4979c-0.003271-1.6445-1.3555-3-3-3h-2c0-0.55469-0.44531-1-1-1z" fill="#2e3436"/>
</svg>
